<svg width="488" height="284" viewBox="0 0 488 284" fill="none" xmlns="http://www.w3.org/2000/svg">
<mask id="mask0_2101_139" style="mask-type:luminance" maskUnits="userSpaceOnUse" x="1" y="133" width="224" height="146">
<path d="M1.13574 133.333H225V278.13H1.13574V133.333Z" fill="white"/>
</mask>
<g mask="url(#mask0_2101_139)">
<path fill-rule="evenodd" clip-rule="evenodd" d="M2.15169 173.917C6.47461 193.859 54.7038 209.583 113.553 209.583C150.063 209.583 182.48 203.526 202.865 194.172C187.053 239.193 146.11 271.265 98.084 271.265C86.8652 271.265 75.9902 269.495 65.709 266.208C80.4069 273.687 96.834 277.854 114.089 277.854C171.605 277.854 218.98 231.854 225.167 172.703L225.157 172.776C225.225 172.182 225.271 171.594 225.271 170.995C225.271 153.651 192.131 138.974 146.527 134.12C185.719 139.203 213.61 152.271 213.61 167.588C213.61 187.338 167.266 203.344 110.105 203.344C52.9434 203.344 6.60482 187.338 6.60482 167.588C6.60482 160.901 11.9121 154.646 21.1569 149.297C8.96419 155.484 1.83398 162.953 1.83398 170.995C1.83398 171.974 1.94857 172.948 2.15169 173.917Z" fill="#FBAA9C"/>
</g>
<path d="M156.422 211.552C152.453 192.422 130.271 171.219 106.875 148.838C90.9476 133.615 74.458 117.849 62.6663 101.755C70.708 120.01 76.1195 142.177 81.3486 163.578C89.0205 195.036 96.2861 224.849 110.875 237.854C116.192 242.599 122.239 244.87 128.166 245.151C133.51 245.406 138.771 244.042 143.302 241.427C147.833 238.807 151.646 234.932 154.099 230.172C156.817 224.901 157.875 218.531 156.422 211.552ZM107.932 147.74C131.51 170.281 153.854 191.651 157.927 211.234C159.448 218.583 158.333 225.307 155.463 230.875C152.869 235.901 148.849 239.995 144.067 242.745C139.291 245.51 133.744 246.943 128.088 246.682C121.833 246.38 115.453 243.99 109.859 239C94.9216 225.677 87.5934 195.646 79.8591 163.948C73.4684 137.771 66.8122 110.458 55.3955 90.6926L56.7236 89.927C68.1403 109.693 88.458 129.12 107.932 147.74Z" fill="#FBAA9C"/>
<path d="M146.364 217.474C140.073 199.578 121.078 176.479 101.031 152.115C88.4893 136.854 75.5309 121.104 64.9893 105.781C72.9945 122.573 80.1559 141.667 87.0934 160.156C98.1716 189.703 108.677 217.703 121.031 232.099C126.63 238.63 132.244 241.927 136.948 242.536C139.354 242.854 141.515 242.458 143.302 241.427C145.088 240.391 146.515 238.719 147.448 236.479C149.271 232.099 149.218 225.588 146.364 217.474ZM102.218 151.146C122.354 175.615 141.427 198.812 147.807 216.963C150.802 225.463 150.817 232.365 148.854 237.073C147.791 239.63 146.146 241.552 144.067 242.745C141.994 243.953 139.51 244.411 136.755 244.057C131.698 243.396 125.739 239.932 119.869 233.104C107.338 218.495 96.7913 190.375 85.6559 160.703C76.4476 136.135 66.8278 110.5 55.3955 90.6926L56.7236 89.927C68.1559 109.734 85.5518 130.88 102.218 151.146Z" fill="#FBAA9C"/>
<path d="M137.354 222.792C128.958 206 112.823 181.203 95.8018 155.036C88.1403 143.25 80.2913 131.198 72.9007 119.469C79.3486 131.74 85.8695 144.562 92.2393 157.094C106.39 184.917 119.802 211.286 130.14 226.953C135.286 234.74 139.291 239.318 141.771 240.906C142.536 241.391 143.057 241.568 143.302 241.427C143.552 241.276 143.666 240.75 143.619 239.833C143.489 236.896 141.526 231.141 137.354 222.792ZM97.0882 154.198C114.135 180.411 130.291 205.245 138.718 222.104C142.994 230.656 145 236.63 145.151 239.766C145.224 241.297 144.843 242.297 144.067 242.745C143.297 243.198 142.239 243.021 140.942 242.193C138.307 240.495 134.135 235.771 128.864 227.797C118.474 212.062 105.041 185.656 90.8747 157.786C79.1299 134.682 66.8643 110.562 55.3955 90.6926L56.7236 89.927C68.1924 109.797 82.9476 132.474 97.0882 154.198Z" fill="#FBAA9C"/>
<mask id="mask1_2101_139" style="mask-type:luminance" maskUnits="userSpaceOnUse" x="0" y="1" width="68" height="107">
<path d="M0 1.33337H67.8021V108H0V1.33337Z" fill="white"/>
</mask>
<g mask="url(#mask1_2101_139)">
<path fill-rule="evenodd" clip-rule="evenodd" d="M1.07855 15.526C1.79209 23.7552 23.4379 54.401 39.7348 77.099C47.8494 88.3958 54.641 97.724 56.865 101.323C58.0473 103.229 59.1879 104.844 60.2817 106.161C60.3338 106.214 62.5265 108.51 65.3858 106.859C68.2192 105.219 67.6827 101.99 67.6619 101.849C67.0681 100.255 66.2452 98.4688 65.1931 96.5104C63.1931 92.7969 58.5108 82.2448 52.7817 69.5625C41.2817 44.1094 25.5577 10.0365 18.7921 5.30209C8.57334 -1.84895 -0.0152042 3.10417 1.07855 15.526Z" fill="#FBAA9C"/>
</g>
<path fill-rule="evenodd" clip-rule="evenodd" d="M129.697 129.771C129.697 129.771 121.093 118.359 119.062 109.286C115.953 95.4427 135.541 93.5781 135.614 107.682C140.671 95.2864 163.77 100.229 143.635 118.859C137.291 124.74 129.697 129.771 129.697 129.771Z" fill="#FBAA9C"/>
<path fill-rule="evenodd" clip-rule="evenodd" d="M102.969 90.3854C102.969 90.3854 90.8232 85.8438 84.8492 79.8958C75.7346 70.8229 89.8024 59.8594 96.7294 70.6146C94.5524 58.6615 114.636 51.2031 108.318 75.25C106.318 82.8333 102.969 90.3854 102.969 90.3854Z" fill="#FBAA9C"/>
<path fill-rule="evenodd" clip-rule="evenodd" d="M146.62 73.8958C146.62 73.8958 140.834 65.0885 139.766 58.3177C138.141 47.9896 152.63 47.5468 152.016 57.9218C156.328 49.0468 173.084 53.7812 157.391 66.5312C152.448 70.5521 146.62 73.8958 146.62 73.8958Z" fill="#FBAA9C"/>
<path fill-rule="evenodd" clip-rule="evenodd" d="M119.437 38.4948C119.437 38.4948 111.828 33.2761 108.713 28.1355C103.969 20.3073 115.578 15.1407 118.515 23.7553C119.062 15.1303 134.213 13.4063 125.724 28.948C123.047 33.849 119.437 38.4948 119.437 38.4948Z" fill="#FBAA9C"/>
<mask id="mask2_2101_139" style="mask-type:luminance" maskUnits="userSpaceOnUse" x="202" y="0" width="272" height="167">
<path d="M473.135 0H202.469V166.667H473.135V0Z" fill="white"/>
</mask>
<g mask="url(#mask2_2101_139)">
<path d="M251.735 126.771C249.152 126.422 246.641 125.953 244.214 125.354C241.797 124.745 239.698 123.724 237.922 122.292C236.141 120.865 234.782 118.807 233.839 116.125C233.058 113.625 232.407 111.146 231.881 108.688C231.365 106.219 231.11 103.682 231.11 101.084C231.11 99.3492 231.193 97.0992 231.36 94.3335C231.537 91.5731 231.589 89.2398 231.506 87.3335C231.323 85.4169 231.037 84.2242 230.652 83.7502C230.261 83.2815 229.245 82.8283 227.61 82.396C224.662 81.4377 222.089 80.4273 219.881 79.3544C217.672 78.271 215.829 76.7294 214.36 74.7294C213.928 74.1356 213.454 73.5106 212.943 72.8544C212.428 72.2033 211.907 71.5783 211.381 70.9794L210.214 67.6044C209.172 65.3544 208.74 63.1044 208.922 60.8544C208.922 59.995 208.881 59.3908 208.797 59.0419C208.266 56.5315 208.454 54.2815 209.36 52.2919C210.277 50.2919 211.381 48.219 212.672 46.0627C213.016 45.37 213.277 44.7867 213.443 44.3127C213.62 43.8283 213.886 43.4117 214.235 43.0627C216.402 41.2606 218.365 39.8544 220.131 38.8544C221.907 37.8544 223.704 37.1408 225.527 36.7085C226.995 36.2815 228.402 35.7867 229.735 35.2294C231.079 34.6617 232.448 34.245 233.839 33.9794C235.131 33.7294 236.011 33.6044 236.485 33.6044C236.969 33.6044 237.948 33.7294 239.422 33.9794C240.365 34.4273 241.115 34.9533 241.672 35.5627C242.24 36.1617 243.089 36.8908 244.214 37.7502C244.907 38.3648 245.573 39.0367 246.214 39.771C246.865 40.5106 247.537 41.219 248.235 41.896C248.662 42.245 248.99 42.745 249.214 43.396C249.433 44.0523 249.631 44.7242 249.797 45.4169C250.407 46.8752 250.99 48.2606 251.547 49.5627C252.115 50.8544 252.308 52.1981 252.131 53.5835C252.047 54.1981 252.136 55.0158 252.402 56.0419C252.912 57.3492 253.12 59.146 253.027 61.4377C252.943 63.7294 252.787 65.8492 252.568 67.7919C252.36 69.7398 252.303 70.8856 252.402 71.2294C252.652 72.87 252.797 74.5783 252.839 76.3544C252.881 78.1356 252.86 80.0158 252.777 82.0002C252.693 84.7658 252.344 87.0367 251.735 88.8127C251.136 90.594 250.662 92.4325 250.318 94.3335L250.047 95.5002C250.225 97.1408 250.162 98.7867 249.86 100.438C249.553 102.078 249.183 103.766 248.756 105.5C248.407 107.307 248.339 109.078 248.547 110.813C248.766 112.552 248.969 114.281 249.152 116C249.412 117.391 250.037 118.24 251.027 118.542C252.027 118.834 253.089 118.511 254.214 117.563C256.808 115.313 259.011 112.459 260.818 109C262.553 105.891 263.912 102.709 264.902 99.4585C265.902 96.2085 267.094 93.0731 268.485 90.0419C268.568 89.6148 268.631 89.2033 268.672 88.8127C268.714 88.4273 268.735 88.0992 268.735 87.8335C268.652 85.0731 268.761 82.2658 269.068 79.4169C269.37 76.5575 269.433 73.6981 269.256 70.8335C269.172 69.4585 269.235 68.0158 269.443 66.5002C269.662 64.9898 269.777 63.4533 269.777 61.896C269.693 61.2033 269.652 60.4481 269.652 59.6252C269.652 58.7919 269.391 57.9481 268.881 57.0835C268.698 56.9169 268.782 56.5731 269.131 56.0419C269.99 55.2658 270.787 54.5106 271.527 53.771C272.261 53.0367 273.068 52.4533 273.943 52.021C274.37 51.771 275.297 51.2815 276.714 50.5419C278.141 49.8075 279.657 49.1617 281.256 48.6044C282.865 48.0367 284.1 47.9273 284.964 48.271C285.475 48.3544 285.865 48.9585 286.131 50.0835C286.641 52.4169 286.985 54.4533 287.152 56.1877C287.329 57.9117 287.245 59.5106 286.902 60.9794C286.652 61.594 286.652 62.1148 286.902 62.5419C287.344 63.6669 287.412 64.8544 287.11 66.1044C286.803 67.3544 286.652 68.7658 286.652 70.3335C286.568 70.5835 286.454 70.9533 286.318 71.4377C286.193 71.9117 286.219 72.495 286.402 73.1877C286.568 74.3127 286.537 75.4585 286.318 76.6252C286.11 77.7919 285.912 78.9794 285.735 80.1877C285.652 80.8023 285.74 81.7502 286.006 83.0419C286.089 83.3908 286.047 83.7398 285.881 84.0835C285.448 85.0315 285.1 85.9794 284.839 86.9377C284.573 87.8856 284.308 88.7919 284.047 89.6669C283.448 92.0835 283.058 94.2919 282.881 96.2919C282.714 98.2815 282.844 100.521 283.277 103.021C283.62 105.969 285.006 107.182 287.422 106.667C288.381 106.573 289.506 106.052 290.797 105.104C293.225 103.203 295.433 101.021 297.422 98.5627C299.407 96.094 301.053 93.6408 302.36 91.2085C303.303 89.9169 304.053 88.9533 304.61 88.3127C305.178 87.6617 305.636 86.771 305.985 85.646C306.162 85.2033 306.422 85.0523 306.756 85.1877C307.1 85.3127 307.323 85.469 307.422 85.646C307.589 85.8127 307.756 86.0315 307.922 86.2919C308.1 86.5419 308.152 86.9325 308.068 87.4585C307.985 87.8908 307.891 88.1981 307.797 88.3752C307.714 88.5419 307.589 88.844 307.422 89.271C306.891 90.3127 306.261 91.4169 305.527 92.5835C304.787 93.7502 303.948 94.9794 303.006 96.271C302.141 97.3127 301.318 98.4377 300.527 99.646C299.745 100.854 298.969 101.979 298.193 103.021C296.902 104.495 295.672 105.969 294.506 107.438C293.339 108.912 291.886 110.12 290.152 111.063C289.636 111.328 289.115 111.531 288.589 111.667C288.073 111.792 287.511 111.938 286.902 112.104H286.131C283.797 112.188 281.803 111.823 280.152 111C278.511 110.182 276.954 109.25 275.485 108.209C274.969 107.781 274.558 107.245 274.256 106.604C273.948 105.953 273.672 105.453 273.422 105.104C272.808 104.245 272.308 103.344 271.922 102.396C271.532 101.438 271.12 101.021 270.693 101.146C270.261 101.271 269.568 102.677 268.61 105.354L267.839 107.563C267.407 108.604 266.995 109.563 266.61 110.438C266.219 111.302 265.678 112.073 264.985 112.75C264.454 113.281 264.058 113.849 263.797 114.459C263.547 115.057 263.287 115.573 263.027 116C262.594 117.042 262.183 117.891 261.797 118.542C261.407 119.182 260.954 119.719 260.443 120.146C259.318 121.104 258.469 122.084 257.902 123.084C257.344 124.073 256.589 124.604 255.631 124.688C254.683 126.255 253.386 126.948 251.735 126.771ZM231.881 77.0627L232.797 73.3127C233.141 72.3544 233.36 71.3856 233.443 70.396C233.527 69.396 233.74 68.5106 234.089 67.7294C234.266 65.219 234.532 62.771 234.881 60.396C235.225 58.021 235.615 55.62 236.047 53.1877L237.589 45.7919V45.9169C238.282 43.4169 238.006 41.5002 236.756 40.1669C235.506 38.8231 233.704 38.3648 231.36 38.7919C226.954 39.5731 223.412 40.7398 220.735 42.2919C220.037 42.8075 219.386 43.3492 218.777 43.9169C218.178 44.4742 217.573 45.2294 216.964 46.1877C214.797 49.646 213.537 52.9325 213.193 56.0419C213.11 57.9481 213.068 60.021 213.068 62.271C213.068 64.521 213.933 66.6877 215.672 68.771H215.797C216.657 69.719 217.558 70.6252 218.506 71.5002C219.464 72.3648 220.381 73.2658 221.256 74.2085C224.183 76.9898 227.725 77.9377 231.881 77.0627Z" fill="#FBAA9C"/>
<path d="M312.326 70.8335C310.42 71.0158 308.993 70.6981 308.034 69.8751C307.086 69.0574 306.227 67.6981 305.451 65.7918C305.102 65.0991 304.868 64.4481 304.743 63.8335C304.618 63.2241 304.42 62.6616 304.159 62.146C304.076 61.8856 304.034 61.6251 304.034 61.3751C304.034 61.1147 303.94 60.9376 303.763 60.8543C304.024 58.521 304.763 56.3543 305.972 54.3543C306.498 53.4116 307.06 52.6408 307.659 52.0418C308.269 51.4324 308.92 50.8231 309.618 50.2085C310.045 49.7814 310.477 49.6564 310.909 49.8335C311.336 50.0001 311.81 50.2085 312.326 50.4585C313.545 51.0731 314.977 51.5314 316.618 51.8335C318.253 52.1408 319.164 52.5106 319.347 52.9376C319.513 53.7189 319.769 54.146 320.118 54.2293C320.295 54.6616 320.295 55.1199 320.118 55.6043C319.951 56.0783 319.868 56.5314 319.868 56.9585C319.769 58.3491 319.638 59.7814 319.472 61.2501C319.305 62.7085 318.998 64.1356 318.555 65.521C318.305 67.1616 317.68 68.4376 316.68 69.3543C315.68 70.2606 314.576 70.7501 313.368 70.8335H312.326ZM318.18 114.438C315.498 114.969 313.034 114.537 310.784 113.146C310.435 112.802 310.019 112.5 309.534 112.25C309.06 111.99 308.607 111.724 308.18 111.458C307.315 110.766 306.539 109.99 305.847 109.125C305.149 108.266 304.456 107.354 303.763 106.396C303.513 105.969 303.336 105.516 303.243 105.042C303.159 104.573 303.118 104.073 303.118 103.542C303.118 102.849 303.076 102.182 302.993 101.542C302.909 100.891 302.909 100.261 302.993 99.646C302.81 98.4376 302.701 97.3439 302.659 96.3543C302.618 95.3543 302.555 94.3335 302.472 93.2918C302.638 92.8647 302.784 92.3699 302.909 91.8126C303.045 91.2449 303.118 90.7449 303.118 90.3126C303.118 89.6199 303.118 88.9741 303.118 88.3751C303.118 87.7658 303.248 87.1564 303.513 86.5418C303.68 85.5991 303.826 84.6772 303.951 83.771C304.086 82.8543 304.243 81.9689 304.409 81.1043C304.409 80.4116 304.43 79.8699 304.472 79.4793C304.524 79.0939 304.81 78.7658 305.326 78.5001C305.753 78.3231 306.295 78.1043 306.951 77.8543C307.602 77.5939 308.227 77.5939 308.826 77.8543C310.034 78.2033 311.284 78.5731 312.576 78.9585C313.878 79.3491 315.097 79.7606 316.222 80.1876C316.649 80.271 317.06 80.4064 317.451 80.5835C317.836 80.7501 318.164 80.9689 318.43 81.2293C318.857 81.3126 319.164 81.7033 319.347 82.396C319.347 82.9949 319.253 83.4272 319.076 83.6876C319.076 84.7293 318.951 85.9897 318.701 87.4585C318.602 89.1824 318.513 90.9741 318.43 92.8335C318.347 94.6981 318.17 96.5366 317.909 98.3543C317.826 99.4793 317.763 100.604 317.722 101.729C317.68 102.854 317.618 104.021 317.534 105.229C317.534 106.011 317.576 106.787 317.659 107.563C317.743 108.344 317.914 109.12 318.18 109.896C318.43 110.427 318.706 110.688 319.013 110.688C319.315 110.688 319.727 110.599 320.243 110.417C321.368 109.474 322.336 108.531 323.159 107.583C323.993 106.625 324.795 105.583 325.576 104.458C325.92 103.932 326.524 102.828 327.388 101.146C328.248 99.4533 329.18 97.6147 330.18 95.6251C331.18 93.6408 332.065 91.8074 332.847 90.1251C333.623 88.4324 334.138 87.2814 334.388 86.6668C334.649 85.9897 335.081 85.8439 335.68 86.2293C336.289 86.6199 336.597 86.896 336.597 87.0626C336.68 87.2449 336.68 87.4168 336.597 87.5835C336.513 87.7501 336.472 87.9272 336.472 88.1043C336.305 88.6199 335.873 89.7033 335.18 91.3543C334.482 92.9949 333.659 94.7866 332.701 96.7293C331.753 98.6772 330.894 100.432 330.118 102C329.336 103.557 328.774 104.552 328.43 104.979C327.899 105.844 327.352 106.599 326.784 107.25C326.227 107.891 325.607 108.599 324.93 109.375C324.664 109.641 324.378 110.057 324.076 110.625C323.769 111.182 323.493 111.636 323.243 111.979C322.795 112.594 322.097 113.156 321.138 113.667C320.19 114.182 319.206 114.438 318.18 114.438Z" fill="#FBAA9C"/>
<path d="M349.307 114.188C348.958 114.188 348.703 114.146 348.537 114.063C346.547 113.453 344.646 113.104 342.828 113.021C341.271 112.844 339.839 112.391 338.537 111.667C337.245 110.932 336.078 110.042 335.037 109C333.563 107.448 332.609 105.677 332.182 103.688C331.75 101.688 331.599 99.7814 331.724 97.9585C331.859 96.1408 331.932 94.7606 331.932 93.8127C332.016 91.9116 332.354 90.0991 332.953 88.3752C333.563 86.6408 334.255 84.9481 335.037 83.2918C335.995 81.3075 337.162 79.5158 338.537 77.9168C339.922 76.3231 341.313 74.745 342.703 73.1877C343.047 72.745 343.438 72.3283 343.87 71.9377C344.297 71.5522 344.688 71.0575 345.037 70.4585C345.12 70.1981 345.287 70.021 345.537 69.9377C345.797 69.8543 346.021 69.896 346.203 70.0627C346.714 70.4116 347.297 70.6252 347.953 70.7085C348.604 70.7918 349.229 70.9272 349.828 71.1043C350.787 71.4533 351.521 71.5835 352.037 71.5002C352.563 71.4064 353.214 71.5783 353.995 72.021C354.422 72.1877 354.854 72.3647 355.287 72.5418C355.714 72.7085 356.188 72.9272 356.703 73.1877C358.87 74.1356 360.38 75.5991 361.245 77.5835C361.589 78.4585 361.333 79.1981 360.474 79.7918C360.307 79.8752 360.109 80.0522 359.891 80.3127C359.667 80.5783 359.432 80.8439 359.182 81.1043C358.833 81.3543 358.271 81.6356 357.495 81.9377C356.714 82.245 356.063 82.5731 355.537 82.9168C355.104 83.1668 354.693 83.4689 354.307 83.8127C353.917 84.1616 353.641 84.6825 353.474 85.3752C353.474 85.4585 353.401 85.6147 353.266 85.8335C353.141 86.0418 352.995 86.2397 352.828 86.4168C352.563 86.5835 352.339 86.8022 352.162 87.0627C351.813 87.7606 351.38 88.4325 350.87 89.0835C350.354 89.7241 349.75 90.2606 349.057 90.6877C349.057 90.6877 348.964 90.7814 348.787 90.9585C348.62 92.0002 348.188 92.9325 347.495 93.7502C346.797 94.5731 346.37 95.5002 346.203 96.5418C346.203 96.6252 346.182 96.6877 346.141 96.7293C346.099 96.771 346.078 96.8335 346.078 96.9168C345.38 97.7918 344.922 98.7293 344.703 99.7293C344.495 100.719 344.255 101.729 343.995 102.771C343.729 103.979 343.922 105.125 344.578 106.208C345.229 107.292 345.984 108.307 346.849 109.25C347.542 110.031 348.318 110.162 349.182 109.646C350.042 109.219 350.75 108.677 351.307 108.021C351.875 107.37 352.464 106.745 353.078 106.146C354.12 105.021 355.005 103.813 355.745 102.521C356.479 101.219 357.188 99.9116 357.87 98.6043C358.047 98.1772 358.182 97.7658 358.266 97.3752C358.349 96.9897 358.391 96.62 358.391 96.271C358.307 94.7189 358.37 93.2502 358.578 91.8752C358.797 90.4897 358.958 89.0991 359.057 87.7085C359.057 86.8491 359.484 86.4168 360.349 86.4168C360.859 86.3335 361.375 86.2918 361.891 86.2918C362.417 86.2918 362.896 86.2918 363.328 86.2918C364.104 86.2918 364.495 86.6825 364.495 87.4585L364.099 88.8752C363.849 89.0575 363.63 89.4064 363.453 89.9168C363.453 90.7814 363.432 91.6252 363.391 92.4585C363.349 93.2814 363.328 94.1616 363.328 95.1043C363.328 95.37 363.287 95.5835 363.203 95.7502C363.203 96.2814 363.245 96.7189 363.328 97.0627C363.328 97.6616 363.479 98.2241 363.787 98.7502C364.089 99.2658 364.287 99.87 364.37 100.563C364.188 103.854 365.703 105.844 368.912 106.521C369.255 106.62 369.688 106.667 370.203 106.667C370.729 106.667 371.464 106.365 372.412 105.75C372.672 105.583 373.042 105.349 373.516 105.042C373.984 104.74 374.271 104.5 374.37 104.333C374.453 104.156 374.792 103.615 375.391 102.708C376 101.792 376.672 100.771 377.412 99.646C378.146 98.521 378.599 97.7033 378.766 97.1877C379.458 95.2866 380.193 93.6877 380.974 92.396C381.75 91.0939 382.313 89.271 382.662 86.9377C382.839 86.245 383.078 85.7918 383.37 85.5835C383.672 85.3647 384.172 85.5522 384.87 86.146C385.828 86.8439 386.214 87.4533 386.037 87.9793C385.87 88.495 385.693 89.0106 385.516 89.521C384.651 92.7293 383.703 95.1616 382.662 96.8127C381.62 98.4533 380.755 99.9168 380.078 101.208C379.38 102.599 378.537 103.99 377.537 105.375C376.547 106.75 375.792 107.615 375.266 107.958C374.833 108.224 374.354 108.573 373.828 109C373.313 109.432 372.974 109.781 372.807 110.042C372.625 110.292 372.037 110.531 371.037 110.75C370.047 110.958 369.38 111.021 369.037 110.938C368.521 110.771 367.766 110.583 366.766 110.375C365.776 110.156 365.063 109.87 364.62 109.521C364.021 109.094 363.396 108.62 362.745 108.104C362.089 107.578 361.547 106.927 361.12 106.146C361.12 106.063 361.099 106.021 361.057 106.021C361.016 106.021 360.995 105.974 360.995 105.875C360.646 105.281 360.38 104.917 360.203 104.792C360.037 104.656 359.776 104.761 359.432 105.104C359.083 105.188 358.828 105.448 358.662 105.875C357.797 108.042 356.521 109.761 354.828 111.021C353.146 112.271 351.307 113.328 349.307 114.188Z" fill="#FBAA9C"/>
<path d="M394.087 114.188C392.613 113.761 391.379 112.979 390.379 111.854C389.379 110.729 388.535 109.433 387.858 107.959C386.983 105.709 386.431 103.375 386.212 100.959C386.004 98.5315 386.337 96.1045 387.212 93.6878C387.379 93.2607 387.504 92.8076 387.587 92.3336C387.671 91.8493 387.801 91.4326 387.983 91.0836C388.41 90.3076 388.197 89.7868 387.337 89.5211C386.806 89.3545 386.421 89.2711 386.171 89.2711C385.129 89.1045 384.197 88.7451 383.379 88.1878C382.556 87.6201 381.801 87.0315 381.108 86.417C379.983 85.4586 379.035 84.3753 378.254 83.167C377.478 81.9586 376.874 80.7086 376.442 79.417C376.348 78.9743 376.233 78.5836 376.108 78.2503C375.983 77.9065 375.921 77.5576 375.921 77.2086C375.827 75.5576 375.952 74.0003 376.296 72.542C376.645 71.0732 377.124 69.6409 377.733 68.2503C378.166 67.042 378.942 66.4378 380.067 66.4378C380.676 66.4378 381.259 66.3076 381.817 66.042C382.369 65.7815 382.869 65.6045 383.317 65.5211C384.343 65.094 385.077 65.2659 385.525 66.042C385.692 66.3909 385.947 66.6045 386.296 66.6878C387.765 67.6461 388.629 69.0784 388.879 70.9795C389.14 72.1045 389.317 73.2295 389.4 74.3545C389.494 75.4795 389.41 76.6045 389.15 77.7295C389.067 78.5107 388.973 79.3076 388.879 80.1253C388.796 80.9482 388.671 81.7451 388.504 82.5211C389.28 82.3545 389.988 82.0784 390.629 81.6878C391.28 81.3024 391.91 80.844 392.525 80.3128C393.65 79.2711 394.9 78.6878 396.275 78.5628C397.66 78.4378 399.051 78.4586 400.442 78.6253C401.65 78.8076 402.64 79.3076 403.421 80.1253C404.197 80.9482 404.801 81.8753 405.233 82.917C406.192 84.9065 406.322 86.9378 405.629 89.0211C405.462 89.6201 405.285 90.2451 405.108 90.8961C404.942 91.5524 404.64 92.1357 404.212 92.6461C404.03 92.9951 403.848 93.4326 403.671 93.9586C403.504 94.4743 403.379 94.9899 403.296 95.5003C403.113 96.1149 402.89 96.7243 402.629 97.3336C402.379 97.9326 402.077 98.5315 401.733 99.1253C400.785 100.433 400.009 101.802 399.4 103.229C398.785 104.646 398.181 106.136 397.587 107.688V108.479C397.504 108.745 397.504 109 397.587 109.25C397.405 109.865 397.754 110.344 398.629 110.688C401.223 111.287 403.322 111.157 404.921 110.292C406.515 109.433 408.306 108.224 410.296 106.667C411.072 105.974 411.738 105.282 412.296 104.584C412.863 103.891 413.41 103.115 413.942 102.25C414.452 101.558 414.926 100.844 415.358 100.104C415.785 99.3701 416.452 98.1409 417.358 96.417C418.275 94.6826 419.556 91.9534 421.212 88.2295C421.379 88.0628 421.525 87.8076 421.65 87.4586C421.785 87.1149 422.155 87.1565 422.754 87.5836C423.28 87.9326 423.629 88.1982 423.796 88.3753C423.973 88.542 423.843 89.0993 423.4 90.042C421.494 94.0315 419.983 97.1461 418.858 99.3961C417.733 101.646 416.671 103.469 415.671 104.854C414.681 106.229 413.369 107.787 411.733 109.521C411.301 109.953 410.822 110.344 410.296 110.688C409.78 111.037 409.306 111.427 408.879 111.854C406.712 113.761 404.348 114.823 401.796 115.042C399.254 115.25 396.681 114.969 394.087 114.188Z" fill="#FBAA9C"/>
<mask id="mask3_2101_139" style="mask-type:luminance" maskUnits="userSpaceOnUse" x="417" y="69" width="57" height="46">
<path d="M417.135 69.3335H473.031V114.667H417.135V69.3335Z" fill="white"/>
</mask>
<g mask="url(#mask3_2101_139)">
<path d="M435.335 114.188C434.986 114.188 434.731 114.146 434.564 114.063C432.574 113.454 430.673 113.105 428.856 113.021C427.298 112.844 425.866 112.391 424.564 111.667C423.272 110.933 422.106 110.042 421.064 109C419.59 107.448 418.637 105.677 418.21 103.688C417.777 101.688 417.626 99.7817 417.751 97.9587C417.887 96.141 417.96 94.7608 417.96 93.8129C418.043 91.9119 418.382 90.0994 418.981 88.3754C419.59 86.641 420.283 84.9483 421.064 83.2921C422.022 81.3077 423.189 79.516 424.564 77.9171C425.949 76.3233 427.34 74.7452 428.731 73.1879C429.074 72.7452 429.465 72.3285 429.897 71.9379C430.324 71.5525 430.715 71.0577 431.064 70.4587C431.147 70.1983 431.314 70.0212 431.564 69.9379C431.824 69.8546 432.048 69.8962 432.231 70.0629C432.741 70.4119 433.324 70.6254 433.981 70.7087C434.632 70.7921 435.257 70.9275 435.856 71.1046C436.814 71.4535 437.548 71.5837 438.064 71.5004C438.59 71.4067 439.241 71.5785 440.022 72.0212C440.449 72.1879 440.882 72.365 441.314 72.5421C441.741 72.7087 442.215 72.9275 442.731 73.1879C444.897 74.1358 446.408 75.5994 447.272 77.5837C447.616 78.4587 447.361 79.1983 446.501 79.7921C446.335 79.8754 446.137 80.0525 445.918 80.3129C445.694 80.5785 445.46 80.8442 445.21 81.1046C444.861 81.3546 444.298 81.6358 443.522 81.9379C442.741 82.2452 442.09 82.5733 441.564 82.9171C441.132 83.1671 440.72 83.4692 440.335 83.8129C439.944 84.1619 439.668 84.6827 439.501 85.3754C439.501 85.4587 439.428 85.615 439.293 85.8337C439.168 86.0421 439.022 86.24 438.856 86.4171C438.59 86.5837 438.366 86.8025 438.189 87.0629C437.84 87.7608 437.408 88.4327 436.897 89.0837C436.382 89.7244 435.777 90.2608 435.085 90.6879C435.085 90.6879 434.991 90.7817 434.814 90.9587C434.647 92.0004 434.215 92.9327 433.522 93.7504C432.824 94.5733 432.397 95.5004 432.231 96.5421C432.231 96.6254 432.21 96.6879 432.168 96.7296C432.126 96.7712 432.106 96.8337 432.106 96.9171C431.408 97.7921 430.949 98.7296 430.731 99.7296C430.522 100.719 430.283 101.73 430.022 102.771C429.757 103.98 429.949 105.125 430.606 106.209C431.257 107.292 432.012 108.308 432.876 109.25C433.569 110.032 434.345 110.162 435.21 109.646C436.069 109.219 436.777 108.677 437.335 108.021C437.902 107.37 438.491 106.745 439.106 106.146C440.147 105.021 441.033 103.813 441.772 102.521C442.507 101.219 443.215 99.9119 443.897 98.6046C444.074 98.1775 444.21 97.766 444.293 97.3754C444.376 96.99 444.418 96.6202 444.418 96.2712C444.335 94.7192 444.397 93.2504 444.606 91.8754C444.824 90.49 444.986 89.0994 445.085 87.7087C445.085 86.8494 445.512 86.4171 446.376 86.4171C446.887 86.3337 447.402 86.2921 447.918 86.2921C448.444 86.2921 448.923 86.2921 449.356 86.2921C450.132 86.2921 450.522 86.6827 450.522 87.4587L450.126 88.8754C449.876 89.0577 449.658 89.4067 449.481 89.9171C449.481 90.7817 449.46 91.6254 449.418 92.4587C449.376 93.2817 449.356 94.1619 449.356 95.1046C449.356 95.3702 449.314 95.5837 449.231 95.7504C449.231 96.2817 449.272 96.7192 449.356 97.0629C449.356 97.6619 449.507 98.2244 449.814 98.7504C450.116 99.266 450.314 99.8702 450.397 100.563C450.215 103.855 451.731 105.844 454.939 106.521C455.283 106.62 455.715 106.667 456.231 106.667C456.757 106.667 457.491 106.365 458.439 105.75C458.699 105.584 459.069 105.349 459.543 105.042C460.012 104.74 460.298 104.5 460.397 104.334C460.481 104.157 460.819 103.615 461.418 102.709C462.027 101.792 462.699 100.771 463.439 99.6462C464.173 98.5212 464.626 97.7035 464.793 97.1879C465.486 95.2869 466.22 93.6879 467.001 92.3962C467.777 91.0942 468.34 89.2712 468.689 86.9379C468.866 86.2452 469.106 85.7921 469.397 85.5837C469.699 85.365 470.199 85.5525 470.897 86.1462C471.856 86.8442 472.241 87.4535 472.064 87.9796C471.897 88.4952 471.72 89.0108 471.543 89.5212C470.678 92.7296 469.731 95.1619 468.689 96.8129C467.647 98.4535 466.783 99.9171 466.106 101.209C465.408 102.599 464.564 103.99 463.564 105.375C462.574 106.75 461.819 107.615 461.293 107.959C460.861 108.224 460.382 108.573 459.856 109C459.34 109.433 459.001 109.782 458.835 110.042C458.652 110.292 458.064 110.532 457.064 110.75C456.074 110.959 455.408 111.021 455.064 110.938C454.548 110.771 453.793 110.584 452.793 110.375C451.803 110.157 451.09 109.87 450.647 109.521C450.048 109.094 449.423 108.62 448.772 108.105C448.116 107.579 447.574 106.927 447.147 106.146C447.147 106.063 447.126 106.021 447.085 106.021C447.043 106.021 447.022 105.974 447.022 105.875C446.673 105.282 446.408 104.917 446.231 104.792C446.064 104.657 445.803 104.761 445.46 105.105C445.111 105.188 444.856 105.448 444.689 105.875C443.824 108.042 442.548 109.761 440.856 111.021C439.173 112.271 437.335 113.329 435.335 114.188Z" fill="#FBAA9C"/>
</g>
</g>
<mask id="mask4_2101_139" style="mask-type:luminance" maskUnits="userSpaceOnUse" x="279" y="116" width="209" height="168">
<path d="M487.802 116H279.802V284H487.802V116Z" fill="white"/>
</mask>
<g mask="url(#mask4_2101_139)">
<path d="M311.088 241.912C308.223 241.995 305.692 241.589 303.483 240.682C301.275 239.766 299.869 239.266 299.275 239.182L298.233 238.537C298.067 238.11 297.78 237.74 297.379 237.432C296.989 237.13 296.629 236.802 296.296 236.453C293.088 233.511 290.983 230.766 289.983 228.224C288.994 225.672 288.504 224.261 288.504 223.995L288.108 222.703C287.593 221.495 287.181 220.266 286.879 219.016C286.572 217.755 286.421 216.427 286.421 215.037C286.421 214.953 286.504 213.922 286.671 211.933C286.848 209.933 287.114 207.552 287.463 204.787C287.806 202.026 288.176 199.365 288.567 196.808C288.952 194.255 289.28 192.328 289.546 191.037C290.056 188.787 290.785 186.558 291.733 184.349C292.692 182.141 293.598 179.953 294.463 177.787C295.155 176.068 295.973 174.406 296.921 172.808C297.879 171.198 298.838 169.615 299.796 168.058C301.004 165.99 302.384 164.047 303.942 162.224C305.494 160.406 307.009 158.636 308.483 156.912C309.952 155.177 311.66 153.797 313.608 152.766C315.551 151.724 317.692 151.156 320.025 151.057C322.108 150.974 323.775 151.547 325.025 152.766C326.285 153.974 327.004 155.573 327.171 157.557C327.348 159.031 327.463 160.547 327.504 162.099C327.546 163.656 327.473 165.255 327.296 166.891C327.473 168.63 327.239 170.276 326.588 171.828C325.931 173.386 325.259 174.943 324.567 176.495C324.134 177.703 323.614 178.87 323.004 179.995C322.405 181.12 321.634 182.162 320.692 183.12C319.567 184.594 318.176 184.943 316.525 184.162C316.176 183.818 316.004 183.427 316.004 182.995C316.004 182.219 316.306 181.391 316.921 180.516C318.556 178.266 319.744 175.849 320.483 173.266C321.218 170.672 321.759 168.031 322.108 165.349C322.192 164.656 322.14 163.964 321.963 163.266C321.796 162.573 321.671 161.88 321.588 161.182C321.671 160.839 321.577 160.578 321.317 160.412C321.067 160.235 320.806 160.099 320.546 160.016C320.379 159.849 320.16 159.745 319.9 159.703C319.65 159.651 319.39 159.578 319.129 159.495C317.822 158.719 316.884 158.443 316.317 158.662C315.759 158.87 315.223 159.672 314.713 161.057C314.364 162.349 313.994 163.61 313.608 164.828C313.218 166.037 313.067 167.38 313.15 168.849C313.327 170.141 313.223 171.422 312.838 172.683C312.447 173.933 312.035 175.162 311.608 176.37C310.994 178.537 310.384 180.766 309.775 183.058C309.176 185.349 308.879 187.662 308.879 189.995C308.879 191.203 308.744 192.412 308.483 193.62C308.483 193.719 308.39 194.349 308.213 195.516C308.046 196.683 307.89 197.891 307.754 199.141C307.629 200.391 307.567 201.24 307.567 201.683C307.483 203.058 307.442 204.422 307.442 205.766C307.442 207.099 307.442 208.464 307.442 209.849C307.869 212.797 308.197 214.964 308.421 216.349C308.64 217.724 308.796 218.933 308.879 219.974C308.796 220.24 308.723 220.526 308.671 220.828C308.629 221.12 308.655 221.443 308.754 221.787C308.754 222.052 308.775 222.318 308.817 222.578C308.858 222.828 308.921 223.13 309.004 223.474C309.348 223.99 309.697 224.839 310.046 226.016C310.39 227.183 310.884 228.443 311.525 229.787C312.176 231.12 313.129 232.245 314.379 233.162C315.64 234.068 317.358 234.516 319.525 234.516C321.327 234.516 322.968 234.193 324.442 233.537C325.91 232.886 327.426 231.995 328.983 230.87C329.858 230.177 330.53 229.724 331.004 229.516C331.473 229.297 331.968 228.948 332.483 228.474C333.009 228.005 333.765 227.162 334.754 225.953C335.754 224.735 337.202 222.87 339.108 220.37C340.067 219.151 341.056 217.464 342.088 215.308C343.129 213.141 344.119 210.985 345.067 208.828C346.025 206.662 346.765 205.058 347.296 204.016C347.546 203.49 347.801 203.12 348.067 202.912C348.327 202.693 348.718 202.844 349.233 203.37C349.4 203.453 349.593 203.714 349.817 204.141C350.035 204.573 349.973 205.136 349.629 205.828C348.671 207.995 347.473 210.703 346.046 213.953C344.629 217.193 343.093 220.323 341.442 223.349C341.009 224.214 340.254 225.183 339.171 226.266C338.088 227.349 337.369 228.11 337.025 228.537C335.384 230.276 334.108 231.88 333.192 233.349C332.285 234.808 330.843 236.151 328.858 237.37C327.91 237.969 327.072 238.266 326.338 238.266C325.598 238.266 324.754 238.485 323.796 238.912C323.098 239.261 322.426 239.589 321.775 239.891C321.134 240.198 320.468 240.432 319.775 240.599C318.384 240.781 316.952 241.005 315.483 241.266C314.025 241.516 312.556 241.735 311.088 241.912Z" fill="#FBAA9C"/>
<path d="M363.363 230.745C363.014 230.745 362.759 230.703 362.592 230.62C360.603 230.011 358.702 229.662 356.884 229.578C355.327 229.401 353.894 228.948 352.592 228.224C351.301 227.49 350.134 226.599 349.092 225.558C347.618 224.005 346.665 222.235 346.238 220.245C345.806 218.245 345.655 216.339 345.78 214.516C345.915 212.698 345.988 211.318 345.988 210.37C346.071 208.469 346.41 206.656 347.009 204.933C347.618 203.198 348.311 201.505 349.092 199.849C350.051 197.865 351.217 196.073 352.592 194.474C353.978 192.88 355.368 191.302 356.759 189.745C357.103 189.302 357.493 188.886 357.926 188.495C358.353 188.11 358.743 187.615 359.092 187.016C359.176 186.755 359.342 186.578 359.592 186.495C359.853 186.412 360.077 186.453 360.259 186.62C360.769 186.969 361.353 187.183 362.009 187.266C362.66 187.349 363.285 187.485 363.884 187.662C364.842 188.011 365.577 188.141 366.092 188.058C366.618 187.964 367.269 188.136 368.051 188.578C368.478 188.745 368.91 188.922 369.342 189.099C369.769 189.266 370.243 189.485 370.759 189.745C372.926 190.693 374.436 192.156 375.301 194.141C375.644 195.016 375.389 195.755 374.53 196.349C374.363 196.433 374.165 196.61 373.946 196.87C373.722 197.136 373.488 197.401 373.238 197.662C372.889 197.912 372.327 198.193 371.551 198.495C370.769 198.802 370.118 199.13 369.592 199.474C369.16 199.724 368.748 200.026 368.363 200.37C367.972 200.719 367.696 201.24 367.53 201.933C367.53 202.016 367.457 202.172 367.321 202.391C367.196 202.599 367.051 202.797 366.884 202.974C366.618 203.141 366.394 203.36 366.217 203.62C365.868 204.318 365.436 204.99 364.926 205.641C364.41 206.281 363.806 206.818 363.113 207.245C363.113 207.245 363.019 207.339 362.842 207.516C362.676 208.558 362.243 209.49 361.551 210.308C360.853 211.13 360.426 212.058 360.259 213.099C360.259 213.183 360.238 213.245 360.196 213.287C360.155 213.328 360.134 213.391 360.134 213.474C359.436 214.349 358.978 215.287 358.759 216.287C358.551 217.276 358.311 218.287 358.051 219.328C357.785 220.537 357.978 221.683 358.634 222.766C359.285 223.849 360.04 224.865 360.905 225.808C361.597 226.589 362.373 226.719 363.238 226.203C364.097 225.776 364.806 225.235 365.363 224.578C365.931 223.927 366.519 223.302 367.134 222.703C368.176 221.578 369.061 220.37 369.801 219.078C370.535 217.776 371.243 216.469 371.926 215.162C372.103 214.735 372.238 214.323 372.321 213.933C372.405 213.547 372.446 213.177 372.446 212.828C372.363 211.276 372.426 209.808 372.634 208.433C372.853 207.047 373.014 205.656 373.113 204.266C373.113 203.406 373.54 202.974 374.405 202.974C374.915 202.891 375.431 202.849 375.946 202.849C376.472 202.849 376.952 202.849 377.384 202.849C378.16 202.849 378.551 203.24 378.551 204.016L378.155 205.433C377.905 205.615 377.686 205.964 377.509 206.474C377.509 207.339 377.488 208.183 377.446 209.016C377.405 209.839 377.384 210.719 377.384 211.662C377.384 211.927 377.342 212.141 377.259 212.308C377.259 212.839 377.301 213.276 377.384 213.62C377.384 214.219 377.535 214.781 377.842 215.308C378.144 215.823 378.342 216.427 378.426 217.12C378.243 220.412 379.759 222.401 382.967 223.078C383.311 223.177 383.743 223.224 384.259 223.224C384.785 223.224 385.519 222.922 386.467 222.308C386.728 222.141 387.097 221.906 387.571 221.599C388.04 221.297 388.327 221.058 388.426 220.891C388.509 220.714 388.847 220.172 389.446 219.266C390.056 218.349 390.728 217.328 391.467 216.203C392.202 215.078 392.655 214.261 392.821 213.745C393.514 211.844 394.248 210.245 395.03 208.953C395.806 207.651 396.368 205.828 396.717 203.495C396.894 202.802 397.134 202.349 397.426 202.141C397.728 201.922 398.228 202.11 398.926 202.703C399.884 203.401 400.269 204.011 400.092 204.537C399.926 205.052 399.748 205.568 399.571 206.078C398.707 209.287 397.759 211.719 396.717 213.37C395.676 215.011 394.811 216.474 394.134 217.766C393.436 219.156 392.592 220.547 391.592 221.933C390.603 223.308 389.847 224.172 389.321 224.516C388.889 224.781 388.41 225.13 387.884 225.558C387.368 225.99 387.03 226.339 386.863 226.599C386.681 226.849 386.092 227.089 385.092 227.308C384.103 227.516 383.436 227.578 383.092 227.495C382.577 227.328 381.821 227.141 380.821 226.933C379.832 226.714 379.118 226.427 378.676 226.078C378.077 225.651 377.452 225.177 376.801 224.662C376.144 224.136 375.603 223.485 375.176 222.703C375.176 222.62 375.155 222.578 375.113 222.578C375.071 222.578 375.051 222.531 375.051 222.433C374.702 221.839 374.436 221.474 374.259 221.349C374.092 221.214 373.832 221.318 373.488 221.662C373.139 221.745 372.884 222.005 372.717 222.433C371.853 224.599 370.577 226.318 368.884 227.578C367.202 228.828 365.363 229.886 363.363 230.745Z" fill="#FBAA9C"/>
<path d="M406.705 233.078C406.106 232.995 405.481 232.823 404.83 232.557C404.174 232.297 403.502 231.995 402.809 231.662C402.377 231.662 401.944 231.443 401.517 230.995C401.085 230.052 400.627 229.214 400.142 228.474C399.668 227.74 399.309 226.943 399.059 226.078C398.71 224.61 398.272 223.594 397.746 223.037C397.231 222.469 396.715 221.448 396.205 219.974C396.022 219.547 395.934 219.115 395.934 218.682C395.585 216.516 395.278 214.656 395.017 213.099C394.767 211.547 394.569 210.011 394.434 208.495C394.309 206.985 394.246 205.182 394.246 203.099C394.246 201.63 394.205 200.38 394.121 199.349C394.038 198.307 394.017 197.12 394.059 195.787C394.101 194.443 394.252 192.682 394.517 190.516C394.861 188.349 395.377 185.672 396.059 182.474C396.752 179.266 397.528 176.026 398.392 172.745C399.351 169.802 400.413 166.927 401.58 164.12C402.746 161.302 403.934 158.464 405.142 155.599C405.319 155.089 405.434 154.677 405.476 154.37C405.517 154.068 405.538 153.698 405.538 153.266C405.538 152.141 406.059 151.578 407.101 151.578C408.653 151.495 410.189 151.328 411.705 151.078C413.215 150.818 414.752 150.511 416.309 150.162C417.267 149.985 418.064 150.115 418.705 150.557C419.356 150.99 419.939 151.547 420.455 152.224C421.231 153.349 421.814 154.526 422.205 155.745C422.606 156.953 422.715 158.245 422.538 159.62C422.371 161.011 422.194 162.318 422.017 163.537C421.851 164.745 421.46 165.953 420.851 167.162C420.502 168.193 420.215 169.224 419.996 170.266C419.788 171.307 419.465 172.302 419.038 173.245C418.689 174.287 418.272 175.266 417.788 176.182C417.314 177.089 416.819 177.969 416.309 178.828L412.934 184.537C412.585 185.151 412.319 185.844 412.142 186.62C411.976 187.401 411.892 188.177 411.892 188.953C412.069 189.818 412.163 190.162 412.163 189.995C412.163 189.828 412.069 190.177 411.892 191.037C411.892 191.552 411.913 192.156 411.955 192.849C412.007 193.547 412.121 194.11 412.288 194.537C414.189 191.776 416.569 189.953 419.434 189.078C421.851 188.302 424.028 188.11 425.976 188.495C427.918 188.886 429.585 190.078 430.976 192.078C431.319 192.328 431.627 192.844 431.892 193.62C432.569 195.276 433.257 196.662 433.955 197.787C434.647 198.912 434.861 200.427 434.601 202.328C434.517 202.927 434.382 203.511 434.205 204.078C434.038 204.636 433.736 205.136 433.309 205.578C433.226 205.912 432.767 206.714 431.934 207.974C431.111 209.224 430.252 210.453 429.351 211.662C428.444 212.87 427.819 213.698 427.476 214.141C427.043 214.823 426.413 215.297 425.58 215.557C424.757 215.823 424.481 216.344 424.746 217.12C424.913 217.636 424.996 218.047 424.996 218.349C424.996 218.656 425.085 219.068 425.267 219.578C425.528 220.11 426.246 220.912 427.413 221.995C428.58 223.068 429.335 223.776 429.684 224.12C430.361 224.818 431.049 225.214 431.746 225.307C432.439 225.391 433.215 225.261 434.08 224.912C435.121 224.302 436.226 223.651 437.392 222.953C438.559 222.261 439.528 221.349 440.309 220.224C441.694 218.323 443.127 216.245 444.601 213.995C446.069 211.745 447.413 209.328 448.621 206.745C448.799 206.568 448.996 206.261 449.205 205.828C449.424 205.401 449.621 204.922 449.788 204.391C450.215 203.448 450.538 202.953 450.746 202.912C450.965 202.87 451.252 203.068 451.601 203.495C452.377 204.276 452.507 205.224 451.996 206.349C451.299 207.74 450.455 209.406 449.455 211.349C448.465 213.297 447.496 215.115 446.538 216.807C445.59 218.49 444.814 219.63 444.205 220.224C444.121 220.406 444.038 220.568 443.955 220.703C443.871 220.828 443.736 220.932 443.559 221.016C442.434 222.057 441.267 223.297 440.059 224.724C438.851 226.141 437.549 227.281 436.163 228.141C435.465 228.406 434.772 228.63 434.08 228.807C433.397 228.974 432.71 229.099 432.017 229.182C430.543 229.016 429.288 228.547 428.246 227.766C426.34 226.724 424.439 225.406 422.538 223.807C420.632 222.198 419.121 220.443 417.996 218.537C417.382 217.594 417.017 217.037 416.892 216.87C416.767 216.693 416.356 216.172 415.663 215.307C415.049 214.88 414.621 214.318 414.371 213.62C413.496 212.401 413.08 211.62 413.121 211.287C413.174 210.943 413.371 210.156 413.705 208.932C414.147 207.724 414.757 206.63 415.538 205.641C416.314 204.641 417.132 203.62 417.996 202.578C419.205 201.11 420.132 199.943 420.788 199.078C421.439 198.219 422.022 196.839 422.538 194.932C422.715 194.505 422.83 193.985 422.871 193.37C422.913 192.761 422.627 192.328 422.017 192.078C422.017 191.901 421.976 191.807 421.892 191.807C421.809 191.807 421.767 191.807 421.767 191.807C420.809 191.297 419.851 191.448 418.892 192.266C417.944 193.089 417.215 193.761 416.705 194.287C416.174 194.802 415.715 195.344 415.33 195.912C414.939 196.469 414.528 197.052 414.101 197.662C413.668 198.443 413.34 199.281 413.121 200.182C412.913 201.089 412.59 201.974 412.163 202.849C412.08 203.198 411.965 203.526 411.83 203.828C411.705 204.12 411.642 204.443 411.642 204.787C411.559 205.995 411.403 207.214 411.184 208.432C410.96 209.641 410.767 210.849 410.601 212.057C410.601 212.922 410.58 213.766 410.538 214.599C410.496 215.422 410.257 216.219 409.83 216.995C409.913 217.511 410.017 218.464 410.142 219.849C410.278 221.224 410.413 222.651 410.538 224.12C410.663 225.594 410.767 226.807 410.851 227.766C410.944 228.714 410.944 229.052 410.851 228.787C410.944 229.136 410.996 229.573 410.996 230.099C410.996 230.615 410.996 231.136 410.996 231.662C410.996 232.094 410.924 232.443 410.788 232.703C410.663 232.953 410.252 233.078 409.559 233.078C408.861 233.511 407.913 233.511 406.705 233.078ZM411.642 179.099C411.642 180.047 411.814 180.474 412.163 180.391C412.507 180.307 412.851 179.99 413.184 179.432C413.528 178.865 413.705 178.406 413.705 178.057C414.397 176.073 415.215 174.219 416.163 172.495C417.121 170.761 417.772 168.849 418.121 166.766C418.647 164.865 419.038 162.828 419.288 160.662C419.382 159.719 419.361 158.662 419.226 157.495C419.101 156.328 418.731 155.422 418.121 154.766C417.522 154.115 416.528 154.177 415.142 154.953C414.877 155.136 414.726 155.339 414.684 155.557C414.642 155.766 414.621 155.912 414.621 155.995C414.272 156.511 414.101 156.818 414.101 156.912C413.835 157.511 413.569 158.115 413.309 158.724C413.059 159.323 412.851 159.969 412.684 160.662C412.418 162.219 412.215 163.693 412.08 165.078C411.955 166.469 411.809 167.849 411.642 169.224C411.559 170.266 411.559 171.198 411.642 172.016C411.726 172.839 411.809 173.86 411.892 175.078C411.892 175.427 411.851 176.078 411.767 177.037C411.684 177.985 411.642 178.672 411.642 179.099Z" fill="#FBAA9C"/>
<path d="M457.83 229.453C456.965 229.193 455.997 228.953 454.913 228.745C453.83 228.526 452.684 227.984 451.476 227.12C449.819 225.901 448.476 224.385 447.434 222.578C446.403 220.76 445.721 218.635 445.372 216.203C444.861 213.787 444.778 211.453 445.122 209.203C445.471 206.953 446.028 204.703 446.809 202.453C447.236 201.068 447.84 199.807 448.622 198.682C449.398 197.557 450.215 196.307 451.08 194.932C453.064 191.906 454.752 189.922 456.142 188.974C457.528 188.016 458.913 187.557 460.288 187.599C461.674 187.641 463.319 187.797 465.226 188.057C465.403 188.057 465.601 188.099 465.809 188.182C466.028 188.266 466.184 188.266 466.267 188.182C466.434 188.266 466.58 188.287 466.705 188.245C466.84 188.203 466.955 188.182 467.038 188.182C468.424 188.182 469.549 188.828 470.413 190.12C470.84 190.995 471.231 191.912 471.58 192.87C471.924 193.818 471.882 194.891 471.455 196.099C471.189 197.224 470.997 198.328 470.872 199.412C470.747 200.484 470.549 201.578 470.288 202.703C470.122 203.927 469.773 204.885 469.247 205.578C468.038 207.219 466.997 208.927 466.122 210.703C465.257 212.469 464.226 214.177 463.017 215.828C462.934 216.078 462.674 216.594 462.247 217.37C461.814 218.151 461.642 218.76 461.726 219.203C461.892 220.068 462.148 220.885 462.497 221.662C462.84 222.443 463.189 223.219 463.538 223.995C464.314 224.776 465.267 224.906 466.392 224.391C468.642 223.432 470.913 222.005 473.205 220.099C475.497 218.198 477.726 214.912 479.892 210.245C480.319 208.776 481.017 207.432 481.976 206.224C482.142 205.964 482.33 205.635 482.538 205.245C482.757 204.859 482.913 204.49 482.997 204.141C483.174 203.448 483.392 202.974 483.642 202.724C483.903 202.464 484.34 202.63 484.955 203.224C485.299 203.573 485.559 203.839 485.726 204.016C485.903 204.182 485.778 204.703 485.351 205.578C484.392 207.385 483.799 208.615 483.58 209.266C483.372 209.922 483.267 210.328 483.267 210.495C482.403 212.927 480.997 215.443 479.038 218.037C477.09 220.62 475.017 222.891 472.809 224.849C470.611 226.797 468.606 228.068 466.788 228.662C466.356 228.745 465.835 228.818 465.226 228.87C464.627 228.912 464.023 229.016 463.413 229.182C463.064 229.182 462.851 229.224 462.767 229.307C461.986 229.307 461.184 229.422 460.351 229.641C459.528 229.865 458.689 229.802 457.83 229.453ZM461.601 210.766C461.601 211.365 461.877 211.385 462.434 210.828C463.002 210.26 463.413 209.677 463.663 209.078C464.439 206.995 465.236 204.807 466.059 202.516C466.892 200.224 467.09 197.953 466.663 195.703C466.481 194.76 465.96 194.484 465.101 194.87C464.236 195.26 463.851 195.63 463.934 195.974C463.585 196.49 463.278 196.943 463.017 197.328C462.767 197.719 462.549 198.26 462.372 198.953C462.023 199.734 461.694 200.531 461.392 201.349C461.101 202.172 460.955 203.057 460.955 204.016C460.955 204.182 460.903 204.339 460.809 204.474C460.726 204.599 460.684 204.745 460.684 204.912C460.684 205.094 460.747 205.615 460.872 206.474C461.007 207.339 461.163 208.203 461.33 209.078C461.507 209.943 461.601 210.505 461.601 210.766Z" fill="#FBAA9C"/>
</g>
</svg>
